<?xml version="1.0" encoding="utf-8"?>
<!-- Generator: Adobe Illustrator 24.0.2, SVG Export Plug-In . SVG Version: 6.00 Build 0)  -->
<svg version="1.1" id="Layer_1" xmlns="http://www.w3.org/2000/svg" xmlns:xlink="http://www.w3.org/1999/xlink" x="0px" y="0px"
	 viewBox="0 0 859 518.6" style="enable-background:new 0 0 859 518.6;" xml:space="preserve">
<style type="text/css">
	.st0{fill:url(#SVGID_1_);}
	.st1{fill:none;stroke:#5B5B5B;stroke-width:1.85;stroke-linecap:round;stroke-miterlimit:10;}
	.st2{fill:url(#SVGID_2_);}
	.st3{fill:none;stroke:#B2C0CA;stroke-width:0.92;stroke-linecap:round;stroke-miterlimit:10;}
	.st4{fill:url(#SVGID_3_);}
	.st5{fill:url(#SVGID_4_);}
	.st6{fill:url(#SVGID_5_);}
	.st7{fill:none;stroke:#B2C0CA;stroke-width:1.85;stroke-linecap:round;stroke-miterlimit:10;}
	.st8{fill:url(#SVGID_6_);}
	.st9{fill:url(#SVGID_7_);}
	.st10{fill:url(#SVGID_8_);}
	.st11{fill:url(#SVGID_9_);}
	.st12{fill:url(#SVGID_10_);}
	.st13{fill:url(#SVGID_11_);}
	.st14{fill:#DFF1FD;}
	.st15{fill:#6C6656;}
	.st16{fill:#738067;}
	.st17{fill:#FFFFFF;}
	.st18{fill:#AAB9D8;}
	.st19{fill:#B4D3F7;}
	.st20{fill:#99C5F7;}
	.st21{fill:none;stroke:#C1DEFF;stroke-width:1.43;stroke-linejoin:round;}
	.st22{fill:#E0EFF2;}
	.st23{fill:#C1DEFF;}
	.st24{fill-rule:evenodd;clip-rule:evenodd;fill:#D7DCEB;}
	.st25{fill-rule:evenodd;clip-rule:evenodd;fill:#303879;}
	.st26{fill:#ADB2C1;}
	.st27{fill-rule:evenodd;clip-rule:evenodd;fill:#393A48;}
	.st28{fill-rule:evenodd;clip-rule:evenodd;fill:#1E1925;}
	.st29{fill-rule:evenodd;clip-rule:evenodd;fill:#292E3D;}
	.st30{fill-rule:evenodd;clip-rule:evenodd;fill:#151A29;}
	.st31{fill-rule:evenodd;clip-rule:evenodd;fill:#DE1922;}
	.st32{fill-rule:evenodd;clip-rule:evenodd;fill:#E4574E;}
	.st33{fill-rule:evenodd;clip-rule:evenodd;fill:#2E3342;}
	.st34{fill:#172751;}
	.st35{fill:#314B8F;}
	.st36{fill-rule:evenodd;clip-rule:evenodd;fill:#E6EBFE;}
	.st37{fill-rule:evenodd;clip-rule:evenodd;fill:#F5F8FF;}
	.st38{fill-rule:evenodd;clip-rule:evenodd;fill:#E9D79F;}
	.st39{fill-rule:evenodd;clip-rule:evenodd;fill:#ECD28A;}
	.st40{fill-rule:evenodd;clip-rule:evenodd;fill:#64442F;}
	.st41{fill-rule:evenodd;clip-rule:evenodd;fill:#925A33;}
</style>
<title>online university</title>
<g>
	<g id="Layer_3">
		
			<linearGradient id="SVGID_1_" gradientUnits="userSpaceOnUse" x1="1067.4777" y1="111.4197" x2="1117.1173" y2="111.4197" gradientTransform="matrix(0.9089 0.4171 0.4171 -0.9089 -205.7554 -154.097)">
			<stop  offset="0.35" style="stop-color:#6B7D5D"/>
			<stop  offset="0.93" style="stop-color:#C4D5C6"/>
		</linearGradient>
		<path class="st0" d="M809.5,240.1c0,0-0.4-43.9,6.6-61.4c6.9-17.4,15.4-9,13.7,4.9c-1.7,13.9,11.4,9.9,8.4-11.9s20.3-29.9,20.9-17
			s-27.1,50-21.5,53.9s11.9-17.4,18.3-14.8s1.7,23.7-14.8,35.3s-19.5,22.5-25.3,23.5S809.5,240.1,809.5,240.1z"/>
		<path class="st1" d="M816.2,237.7c0,0,2.8-17.6,7.6-24s12.5-19.5,12.5-19.5"/>
		<path class="st1" d="M822.6,215.3c0,0-3.1-12.5-1-17"/>
		<path class="st1" d="M819.8,221.5c0,0.8,25-4.8,28.4-11.1"/>
		
			<linearGradient id="SVGID_2_" gradientUnits="userSpaceOnUse" x1="1151.0254" y1="169.5075" x2="1106.131" y2="248.7778" gradientTransform="matrix(0.7124 0.7018 0.7018 -0.7124 -141.554 -377.7489)">
			<stop  offset="0.24" style="stop-color:#7E6C82"/>
			<stop  offset="1" style="stop-color:#DFF1FD"/>
		</linearGradient>
		<path class="st2" d="M775.6,288.9c0,0,12-29.9,35.3-45.5c23.3-15.6,35.3-15.3,35.3-15.3s3.6,28.5-25.5,50.4
			S756.9,314.8,775.6,288.9z"/>
		<path class="st3" d="M770.5,301.2c0,0,49.4-40.5,68.4-67.2"/>
		<path class="st3" d="M775.2,297.3c0,0,14.6-1.8,17.2-3.3"/>
		<path class="st3" d="M792.1,263.9c-3.9,4.8-3.6,22-3.6,22s14,3.5,16.5,1.9"/>
		<path class="st3" d="M801.4,274.1c0,0,9.8,2,15.4,1.7"/>
		<path class="st3" d="M812.3,263.2c0,0,14.8,4.9,19.3,2.2"/>
		<path class="st3" d="M806.8,268.6c0,0-0.8-17.9,3.3-21.5"/>
		<path class="st3" d="M822.4,253.4c0,0,12.2,3.1,16,0.6"/>
		<path class="st3" d="M827.8,247.7c0,0-1.4-7.9,0.3-9.5"/>
		
			<linearGradient id="SVGID_3_" gradientUnits="userSpaceOnUse" x1="1069.8002" y1="24.9449" x2="1058.7701" y2="99.595" gradientTransform="matrix(0.92 0.4 0.4 -0.92 -200.95 -134.62)">
			<stop  offset="0.24" style="stop-color:#68594D"/>
			<stop  offset="1" style="stop-color:#DFF1FD"/>
		</linearGradient>
		<path class="st4" d="M786,255.4c0,0,0.2-23.5,11.9-40.1s19.9-19.6,19.9-19.6s10,18.4-4,40.9S780.2,277.9,786,255.4z"/>
		<path class="st3" d="M785.8,265.1c0,0,22.7-40.4,28.6-63.5"/>
		<path class="st3" d="M787.9,261.2c0,0,9.4-5,10.8-6.7"/>
		<path class="st3" d="M790.5,234.1c-1.4,4.3,3.3,15.9,3.3,15.9s10.4-1.3,11.7-3"/>
		<path class="st3" d="M799.5,238.7c0,0,7.2-1.2,10.9-2.9"/>
		<path class="st3" d="M804,228.4c0,0,11.3-0.5,13.7-3.5"/>
		<path class="st3" d="M801.8,233.5c0,0-5.3-12-3.5-15.5"/>
		<path class="st3" d="M808.3,219.1c0,0,9.1-1.1,11-3.8"/>
		<path class="st3" d="M810.4,213.9c0,0-3-5-2.3-6.6"/>
		
			<linearGradient id="SVGID_4_" gradientUnits="userSpaceOnUse" x1="978.632" y1="-102.4843" x2="1070.2347" y2="-102.4843" gradientTransform="matrix(0.9657 0.2595 0.2595 -0.9657 -198.2376 -38.1155)">
			<stop  offset="0.41" style="stop-color:#6F7E61"/>
			<stop  offset="0.96" style="stop-color:#C4D4CA"/>
		</linearGradient>
		<path class="st5" d="M733.4,406.6c0,0-14.3-79.8-7.1-113.7c7.2-33.9,25.1-21.1,26.3,4.8c1.2,25.9,23.7,14.5,11.5-24.2
			s27.6-60.6,32.6-37.3c5.1,23.2-33.7,99.2-22.3,104.6s16.2-35.3,28.7-32.5s10.4,42.7-16,68.8s-28.4,47-38.6,50.5
			C738.3,431.2,733.4,406.6,733.4,406.6z"/>
		<path class="st1" d="M744.7,400.2c0,0-0.5-33,6.3-46c6.8-13,16.6-39.4,16.6-39.4"/>
		<path class="st1" d="M749.5,357.4c0,0-9.4-21.8-7.1-30.7"/>
		<path class="st1" d="M746.2,369.6c0.3,1.5,43.9-16.3,48.1-28.9"/>
		
			<linearGradient id="SVGID_5_" gradientUnits="userSpaceOnUse" x1="1048.5422" y1="-274.4821" x2="1048.5422" y2="-112.6555" gradientTransform="matrix(0.9657 0.2595 0.2595 -0.9657 -198.2376 -38.1155)">
			<stop  offset="0.24" style="stop-color:#7E6C82"/>
			<stop  offset="1" style="stop-color:#DFF1FD"/>
		</linearGradient>
		<path class="st6" d="M735.4,477.3c0,0-6.9-49.2,12.3-87.8s35.5-47.2,35.5-47.2s26.7,35.6,4.5,86.9
			C765.6,480.5,730.2,526.2,735.4,477.3z"/>
		<path class="st7" d="M738,497.7c0,0,35-91.6,40-141.9"/>
		<path class="st7" d="M741.3,488.8c0,0,18.1-13.4,20.4-17.4"/>
		<path class="st7" d="M738.3,431.2c-1.6,9.4,11.9,32.2,11.9,32.2s21.5-5.9,23.5-9.9"/>
		<path class="st7" d="M758.5,437.9c0,0,14.7-4.8,21.9-9.3"/>
		<path class="st7" d="M764.7,415c0,0,23.4-4.6,27.5-11.6"/>
		<path class="st7" d="M761.6,426.5c0,0-14.8-23.4-12.1-31.4"/>
		<path class="st7" d="M770.8,394.3c0,0,18.6-5,21.8-11.2"/>
		<path class="st7" d="M773.5,382.6c0,0-7.9-9.6-6.9-13.1"/>
		
			<linearGradient id="SVGID_6_" gradientUnits="userSpaceOnUse" x1="1290.7744" y1="-79.7552" x2="1247.5701" y2="69.0649" gradientTransform="matrix(0.66 0.75 0.75 -0.66 -38.65 -511.1799)">
			<stop  offset="0.24" style="stop-color:#6C6656"/>
			<stop  offset="1" style="stop-color:#DFF1FD"/>
		</linearGradient>
		<path class="st8" d="M736.3,478.1c0,0,21.8-44.6,59.3-65.9s55.9-19.4,55.9-19.4s2.3,44.3-44.8,74.5
			C759.6,497.5,704.7,515.8,736.3,478.1z"/>
		<path class="st7" d="M727,496.4c0,0,80.3-56.5,112.5-95.4"/>
		<path class="st7" d="M734.7,490.9c0,0,22.5-1.1,26.7-3.1"/>
		<path class="st7" d="M764.4,441.5c-6.6,6.9-8.1,33.3-8.1,33.3s21.2,7,25.1,4.8"/>
		<path class="st7" d="M777.5,458.3c0,0,14.9,4.2,23.5,4.4"/>
		<path class="st7" d="M795.4,442.7c0,0,22.1,9.2,29.4,5.7"/>
		<path class="st7" d="M786.4,450.5c0,0,0.7-27.7,7.5-32.7"/>
		<path class="st7" d="M812.1,428.9c0,0,18.3,6.2,24.4,2.8"/>
		<path class="st7" d="M820.9,420.7c0,0-1.2-12.3,1.5-14.7"/>
		
			<linearGradient id="SVGID_7_" gradientUnits="userSpaceOnUse" x1="-109.951" y1="-246.2201" x2="20.4268" y2="-143.3039" gradientTransform="matrix(0.62 -0.78 -0.78 -0.62 65.68 257.64)">
			<stop  offset="0.24" style="stop-color:#6C6656"/>
			<stop  offset="1" style="stop-color:#DFF1FD"/>
		</linearGradient>
		<path class="st9" d="M256.8,484.7c0,0-76.6-21.1-121.2-73.2s-47.2-81.2-47.2-81.2s68.9-16.2,130.4,48.2S325.4,523,256.8,484.7z"/>
		<path class="st7" d="M288.4,493.8c0,0-112.7-108.3-183.4-147.3"/>
		<path class="st7" d="M277.5,483.5c0,0-8.4-34.6-12.9-40.5"/>
		<path class="st7" d="M190.9,451.5c12.9,8.2,54.8,3,54.8,3s4.8-34.8,0.1-40.3"/>
		<path class="st7" d="M213.5,426.5c0,0,2.2-24.3-0.1-37.6"/>
		<path class="st7" d="M183.7,403.1c0,0,7.9-36.8,0.1-47.1"/>
		<path class="st7" d="M198.6,414.8c0,0-43.6,6.7-53.6-2.3"/>
		<path class="st7" d="M157.1,381.2c0,0,4.2-30.2-2.9-38.7"/>
		<path class="st7" d="M141.6,369.9c0,0-19.1,5.4-23.5,1.7"/>
		
			<linearGradient id="SVGID_8_" gradientUnits="userSpaceOnUse" x1="-115.1103" y1="-87.1315" x2="-34.7954" y2="-23.7319" gradientTransform="matrix(0.62 -0.78 -0.78 -0.62 65.68 257.64)">
			<stop  offset="0.24" style="stop-color:#68594D"/>
			<stop  offset="1" style="stop-color:#DFF1FD"/>
		</linearGradient>
		<path class="st10" d="M103.7,394c0,0-47.1-13-74.6-45.1S0,299,0,299s42.4-10,80.3,29.7S145.9,417.6,103.7,394z"/>
		<path class="st7" d="M123.2,399.6c0,0-69.4-66.7-113-90.7"/>
		<path class="st7" d="M116.4,393.3c0,0-5.2-21.3-7.9-25"/>
		<path class="st7" d="M63.1,373.6c7.9,5.1,33.7,1.9,33.7,1.9s2.9-21.4,0-24.8"/>
		<path class="st7" d="M77,358.2c0,0,1.3-14.9-0.1-23.1"/>
		<path class="st7" d="M58.7,343.8c0,0,4.9-22.7,0.1-29"/>
		<path class="st7" d="M67.8,351c0,0-26.9,4.1-33-1.4"/>
		<path class="st7" d="M42.3,330.3c0,0,2.6-18.6-1.8-23.8"/>
		<path class="st7" d="M32.7,323.3c0,0-11.8,3.3-14.4,1.1"/>
		
			<linearGradient id="SVGID_9_" gradientUnits="userSpaceOnUse" x1="154.7024" y1="-250.8247" x2="212.1313" y2="-115.9042" gradientTransform="matrix(0.9202 -0.3915 -0.3915 -0.9202 -165.3927 193.4098)">
			<stop  offset="0.24" style="stop-color:#7E6C82"/>
			<stop  offset="1" style="stop-color:#DFF1FD"/>
		</linearGradient>
		<path class="st11" d="M88.8,349.7c0,0-35.1-33.8-43.7-75S43.7,217,43.7,217s42,11.4,56.1,64.3S114.4,390.5,88.8,349.7z"/>
		<path class="st7" d="M103.1,363.9c0,0-28.7-91.6-55.3-133.3"/>
		<path class="st7" d="M100.3,355.1c0,0,5.8-21.2,5.1-25.7"/>
		<path class="st7" d="M63,312.4c4.5,8.2,28.7,17.7,28.7,17.7s12.9-17.4,12-21.8"/>
		<path class="st7" d="M82.7,305.5c0,0,8.4-12.5,11.1-20.3"/>
		<path class="st7" d="M73.5,284.2c0,0,15.2-17.6,14.1-25.4"/>
		<path class="st7" d="M78.1,294.9c0,0-25.6-9.2-28.3-17"/>
		<path class="st7" d="M65.7,264.5c0,0,11.3-15.1,9.9-21.8"/>
		<path class="st7" d="M60.7,253.9c0,0-11.9-2.7-13.2-6"/>
		
			<linearGradient id="SVGID_10_" gradientUnits="userSpaceOnUse" x1="239.2754" y1="-142.7741" x2="361.5635" y2="-142.7741" gradientTransform="matrix(1 0 0 -1 -171.6 194.39)">
			<stop  offset="0.37" style="stop-color:#738067"/>
			<stop  offset="0.99" style="stop-color:#E0EFF2"/>
		</linearGradient>
		<path class="st12" d="M116.4,451.2c0,0-46.1-98.1-48.6-144.3s25.1-36,35.6-3s35.6,10.5,6.5-35.2s14.6-87.8,29.1-59.5
			c14.6,28.2-9.1,139.9,7.4,142.8s8.6-51.2,25.7-52s28.1,51.5,3.2,94.4S155,464.9,143.1,473S116.4,451.2,116.4,451.2z"/>
		<path class="st1" d="M128.8,438.9c0,0-12-42.4-7.8-61.6s7.8-56.6,7.8-56.6"/>
		<path class="st1" d="M120.1,382.1c0,0-19.7-24.9-19.7-37.1"/>
		<path class="st1" d="M120.1,399c0.9,1.9,51-36.3,52-54"/>
		
			<linearGradient id="SVGID_11_" gradientUnits="userSpaceOnUse" x1="332.7462" y1="-324.1693" x2="332.7462" y2="-234.9053" gradientTransform="matrix(1 0 0 -1 -171.6 194.39)">
			<stop  offset="0.24" style="stop-color:#7E6C82"/>
			<stop  offset="1" style="stop-color:#DFF1FD"/>
		</linearGradient>
		<path class="st13" d="M256.3,511.7c0,0-77.2,18.6-141.8-5.4s-81-48.1-81-48.1s52.2-47.4,137.6-20.8S335,512,256.3,511.7z"/>
		<path class="st7" d="M288.4,504.4c0,0-151.6-40.2-232.5-40.1"/>
		<path class="st7" d="M273.7,500.7c0,0-24.3-26.2-31.1-29.2"/>
		<path class="st7" d="M182.4,514.5c15.3,1,49.3-23.8,49.3-23.8s-12.9-32.7-19.7-35.2"/>
		<path class="st7" d="M189.9,481.8c0,0-10-22.2-18.5-32.8"/>
		<path class="st7" d="M152.4,475.8c0,0-11.2-36-23-41.2"/>
		<path class="st7" d="M171.1,478.8c0,0-34.8,26.9-48,23.9"/>
		<path class="st7" d="M118.4,469.4c0,0-11.1-28.4-21.5-32.3"/>
		<path class="st7" d="M99.3,467c0,0-14,13.9-19.7,12.8"/>
		<path class="st14" d="M403.2,49c-0.4-1-0.6-2.1-0.6-3.2c0-5.2,4.2-9.3,9.3-9.5c1.2-4.8,5.6-8.2,10.6-8.2c0.3,0,0.6,0,0.8,0
			c1-0.8,2.1-1.3,3.3-1.6c0.6-3,2.7-5.4,5.5-6.4c-0.1-0.8-0.2-1.7-0.2-2.5c0.3-9.9,8.6-17.7,18.6-17.4c9.1,0.3,16.6,7.4,17.4,16.5
			c6.6,0.7,11.6,6.2,11.6,12.9c0,0.3,0,0.6,0,0.9c3.9,0.4,6.7,3.9,6.3,7.8c-0.3,2.4-1.7,4.5-3.9,5.6c0.4,1.7,0.1,3.5-0.8,5h0.2
			c2.7,0,5,2.2,5,4.9l0,0c0,2.7-2.3,4.9-5,4.9h-77.1c-2.7,0-5-2.2-5-4.9l0,0C399.2,51.5,400.9,49.5,403.2,49z"/>
		<path class="st14" d="M182.3,183.8c2.6-7.3-1.2-15.3-8.5-17.9c-1.4-0.5-2.8-0.8-4.3-0.8c-1.7-7.1-8.1-12.1-15.5-12.1
			c-0.4,0-0.8,0-1.2,0c-1.4-1.1-3-2-4.8-2.4c-0.9-4.3-3.9-7.9-8.1-9.5c0.2-1.2,0.3-2.5,0.3-3.7c0.1-14.5-11.6-26.2-26.1-26.3
			c-14-0.1-25.6,10.9-26.3,24.9c-9.6,1.1-16.9,9.3-16.9,19c0,0.4,0,0.9,0,1.3c-5.8,0.7-9.9,6-9.1,11.8c0.4,3.4,2.6,6.4,5.6,8
			c-0.1,0.7-0.2,1.4-0.2,2.1c0,1.9,0.5,3.7,1.4,5.3h-0.2c-4,0-7.3,3.3-7.3,7.3l0,0c0,4,3.3,7.3,7.3,7.3h112.2c4,0,7.3-3.3,7.3-7.3
			l0,0C188.2,187.4,185.8,184.4,182.3,183.8z"/>
		<path class="st15" d="M735.4,69.9l-554.5,28c-4.7,0.2-28,6.5-28,25.9v372c0,11.8,9.1,21.5,20.3,21.5h558.8
			c16.2,1.2,28.8-15.8,28.8-25.9V94.2C760.9,82,750.9,68.4,735.4,69.9z"/>
		<path class="st16" d="M732.1,517.3H173.3c-11.2,0-20.3-9.6-20.3-21.5v-372c0-11.5,8.6-21,19.5-21.4l558.8-25.1
			c11.5-0.5,21.2,9.2,21.2,21.4v397.2C752.4,507.7,743.3,517.3,732.1,517.3z"/>
		<polygon class="st17" points="175.5,493.5 175.5,126.1 729.8,101.1 729.8,493.5 		"/>
		<polygon class="st14" points="198,469.7 198,148.9 707.3,125.9 707.3,469.7 		"/>
		<path class="st18" d="M651.1,334.1l-7.4,29.9c-0.5,2.6-3,4.2-5.6,3.7c-0.1,0-0.2,0-0.2-0.1l0,0c-2.6-0.9-4.1-3.7-3.4-6.3l7.4-29.9
			c0.5-2.6,3.1-4.2,5.7-3.7c0.1,0,0.1,0,0.2,0.1l0,0C650.3,328.6,651.8,331.4,651.1,334.1z"/>
		<path class="st19" d="M565.2,275.4c-24.2-7-49.2,9-54.8,35.7c-5.2,24.6,8.4,49.7,30.8,56.8c11.3,3.6,23.6,2.1,33.8-4
			c5.1-3.2,11.4-4,17.2-2.4l5.3,1.5c9.7,2.8,19.6-3.4,22.2-13.9l3.8-15.3c2.6-10.5-3.1-21.2-12.8-24l-5.3-1.6
			c-5.9-1.8-10.8-5.9-13.7-11.3C586.1,286.6,576.5,278.8,565.2,275.4z"/>
		<path class="st20" d="M547.6,274.2c3.3,0,6.6,0.5,9.7,1.5c10,3,18.5,9.9,23.4,19.1c2.6,4.8,6.9,8.4,12.1,10l4.7,1.3
			c8.5,2.5,13.6,12,11.3,21.3l-3.3,13.5c-2.3,9.3-11.1,14.7-19.6,12.2l-4.7-1.3c-5.1-1.5-10.6-0.7-15.2,2.1
			c-9,5.4-19.9,6.7-29.9,3.6c-12.7-4-22.2-14.6-26.2-27.4c2.9,17.5,14.7,32.6,31.2,37.8c11.3,3.6,23.6,2.1,33.8-4
			c5.1-3.2,11.4-4,17.2-2.4l5.3,1.5c9.7,2.8,19.6-3.4,22.2-13.9l3.8-15.3c2.6-10.5-3.1-21.2-12.8-24l-5.3-1.6
			c-5.9-1.8-10.8-5.9-13.7-11.3c-5.6-10.4-15.2-18.2-26.5-21.6C559.5,273.7,553.5,273.3,547.6,274.2z"/>
		<path class="st21" d="M614.9,351.2L563,336.1c0,0,6.4,0.2,5.1-5.5c-1.3-5.7-14.4-0.9-7.4,1.3s14.9-8.5,7.4-14s-12.1,7.2-1.2,4.7
			c10.9-2.5,2.3-11.2,2.3-11.2l51.9,15.1"/>
		<path class="st22" d="M633.3,324.9l-9.3,37.3c-0.7,3.2-3.9,5.3-7.1,4.6c-0.1,0-0.1,0-0.2-0.1l0,0c-3.3-1.1-5.1-4.6-4.2-7.9
			l9.3-37.3c0.7-3.2,3.9-5.3,7.1-4.6c0.1,0,0.1,0,0.2,0l0,0C632.3,318.1,634.2,321.6,633.3,324.9z"/>
		<path class="st22" d="M638,326.3l-9.3,37.3c-0.7,3.2-3.9,5.3-7.1,4.6c-0.1,0-0.1,0-0.2,0l0,0c-3.3-1.1-5.1-4.6-4.2-7.9l9.2-37.3
			c0.7-3.2,3.9-5.3,7.1-4.6c0.1,0,0.1,0,0.2,0l0,0C637,319.5,638.9,323,638,326.3z"/>
		<path class="st22" d="M642.7,327.7l-9.3,37.3c-0.7,3.2-3.9,5.3-7.1,4.6c-0.1,0-0.1,0-0.2,0l0,0c-3.3-1.1-5.1-4.6-4.2-7.9l9.3-37.3
			c0.7-3.2,3.9-5.3,7.1-4.6c0.1,0,0.1,0,0.2,0l0,0C641.7,320.9,643.6,324.3,642.7,327.7z"/>
		<path class="st22" d="M647.3,329l-9.3,37.3c-0.7,3.2-3.9,5.3-7.1,4.6c-0.1,0-0.1,0-0.2,0l0,0c-3.3-1.1-5.1-4.6-4.2-7.9l9.3-37.3
			c0.7-3.2,3.9-5.3,7.1-4.6c0.1,0,0.1,0,0.2,0l0,0C646.4,322.2,648.2,325.7,647.3,329z"/>
		<path class="st18" d="M628.8,322.1l-10,40.2c-0.7,3.5-4.1,5.7-7.6,5c-0.1,0-0.2,0-0.3-0.1l0,0c-3.5-1.2-5.5-5-4.6-8.6l10-40.2
			c0.7-3.5,4.1-5.7,7.6-5c0.1,0,0.2,0,0.3,0.1l0,0C627.8,314.7,629.8,318.5,628.8,322.1z"/>
		<path class="st23" d="M544,299.6L544,299.6c-1.1,4.4-5.3,7-9.4,5.9l-3.8-1.1c-4.1-1.2-6.5-5.8-5.4-10.2l0,0c1.1-4.4,5.3-7,9.4-5.9
			l3.8,1.1C542.7,290.6,545.1,295.2,544,299.6z"/>
		<path class="st23" d="M558.9,301.9L558.9,301.9c-0.7,3.1-3.7,5.2-6.9,4.5c-0.1,0-0.2,0-0.3-0.1l0,0c-3.2-1.1-5-4.5-4.1-7.7l0,0
			c0.7-3.1,3.7-5.2,6.9-4.5c0.1,0,0.2,0,0.3,0.1l0,0C558,295.2,559.8,298.6,558.9,301.9z"/>
		<path class="st22" d="M648.5,328l-4.8,19.3c-0.5,2.6-3.1,4.3-5.6,3.7c-0.1,0-0.2,0-0.2-0.1l-0.2-0.1c-1.2,2.7-4.1,4.1-6.9,3.3
			c-0.8-0.2-1.6-0.7-2.2-1.2c-0.8,0.1-1.7,0.1-2.5-0.1c-0.8-0.2-1.6-0.7-2.2-1.2c-0.8,0.1-1.7,0.1-2.5-0.1c-0.8-0.2-1.6-0.7-2.2-1.2
			c-0.8,0.1-1.7,0.1-2.5-0.1l0,0c-0.3-0.1-0.5-0.2-0.8-0.3c-1.5,1-3.3,1.2-5,0.7c-2-0.6-3.6-2.2-4.3-4.2c-1.2,0.3-2.5,0.6-3.8,0.6
			c-1.8,0.1-3.7-0.1-5.4-0.7l-5.3-1.5c-0.7-0.2-1.5-0.4-2.2-0.5c-4.4-0.8-9-0.1-13,1.8c-0.7,0.3-1.3,0.7-2,1.1
			c-3.1,1.9-6.4,3.3-9.9,4.3c-4.2,1.2-8.5,1.8-12.9,1.6c-1.5-0.1-3-0.2-4.4-0.4c-2.3-0.3-4.5-0.8-6.7-1.5c-0.9-0.3-1.8-0.6-2.7-1
			l-0.7-0.3c-0.8-0.3-1.7-0.7-2.5-1.1l-0.1-0.1c-0.8-0.4-1.7-0.9-2.5-1.4l-0.6-0.3c-0.8-0.5-1.5-0.9-2.2-1.4l-0.2-0.1
			c-0.8-0.5-1.5-1.1-2.3-1.7l-0.5-0.4c-0.7-0.6-1.4-1.2-2-1.8l-0.1-0.1c-0.7-0.7-1.4-1.4-2.1-2.1l-0.3-0.3c-0.6-0.7-1.3-1.4-1.8-2.1
			l-0.1-0.1c-0.6-0.8-1.3-1.6-1.8-2.4l-0.2-0.3c-0.6-0.8-1.1-1.6-1.7-2.5l0,0c-0.6-0.9-1.1-1.8-1.6-2.8l-0.1-0.1
			c-2.5-4.9-4.3-10.1-5.2-15.5c-1.8,11,0,22.2,5.2,32l0.1,0.1c0.5,0.9,1,1.9,1.6,2.8l0,0c0.5,0.8,1.1,1.7,1.7,2.5l0.2,0.3
			c0.6,0.8,1.2,1.6,1.8,2.4l0.1,0.1c0.6,0.7,1.2,1.4,1.8,2.1c0.1,0.1,0.2,0.2,0.3,0.3c0.7,0.7,1.4,1.4,2.1,2.1l0.1,0.1
			c0.7,0.6,1.3,1.2,2,1.8l0.5,0.4c0.8,0.6,1.5,1.2,2.3,1.7l0.2,0.1c0.7,0.5,1.5,1,2.2,1.4l0.6,0.3c0.8,0.5,1.7,0.9,2.5,1.4l0.1,0.1
			c0.8,0.4,1.6,0.8,2.5,1.1l0.7,0.3c0.9,0.3,1.8,0.7,2.7,1c2.2,0.7,4.4,1.2,6.7,1.5c1.5,0.2,2.9,0.3,4.4,0.4
			c2.9,0.1,5.8-0.1,8.7-0.6c5-0.9,9.7-2.7,14.1-5.3c0.7-0.4,1.3-0.8,2-1.1c4-1.9,8.6-2.6,13-1.8c0.7,0.1,1.5,0.3,2.2,0.5l5.3,1.5
			c1.8,0.5,3.6,0.7,5.4,0.7c1.3-0.1,2.5-0.3,3.8-0.6c0.7,2,2.3,3.5,4.3,4.2c1.7,0.5,3.5,0.2,5-0.7c0.3,0.1,0.5,0.2,0.8,0.3l0,0
			c0.8,0.2,1.6,0.3,2.5,0.1c0.6,0.6,1.4,1,2.2,1.2c0.8,0.2,1.7,0.3,2.5,0.1c0.6,0.6,1.4,1,2.2,1.2c0.8,0.2,1.6,0.3,2.5,0.1
			c2.4,2.1,6,1.9,8.1-0.5c0.4-0.5,0.8-1,1-1.6c0.1,0,0.1,0.1,0.2,0.1c2.6,0.7,5.2-0.9,5.8-3.4c0-0.1,0-0.2,0.1-0.2l7.4-29.9
			C651.7,331.7,650.6,329.2,648.5,328z"/>
		<path class="st24" d="M587.6,440.1c0-12.3,6.7-22.3,14.8-22.3H483.8c-8.2,0-14.8,10-14.8,22.3s6.6,22.3,14.8,22.3h118.7
			C594.3,462.5,587.6,452.5,587.6,440.1z"/>
		<path class="st25" d="M541.4,386.3c0-13.1-6.6-23.7-14.8-23.7h118.7c8.2,0,14.8,10.6,14.8,23.7s-6.6,23.7-14.8,23.7H526.6
			C534.8,410,541.4,399.4,541.4,386.3z"/>
		<rect x="483.7" y="423.2" class="st26" width="162.5" height="2.1"/>
		<rect x="483.7" y="431.3" class="st26" width="162.5" height="2.1"/>
		<rect x="483.7" y="447.4" class="st26" width="162.5" height="2.1"/>
		<rect x="483.7" y="439.3" class="st26" width="162.5" height="2.1"/>
		<rect x="483.7" y="455.5" class="st26" width="162.5" height="2.1"/>
		<rect x="480.6" y="369.2" class="st26" width="48.2" height="2.1"/>
		<rect x="480.6" y="377.3" class="st26" width="48.2" height="2.1"/>
		<rect x="480.6" y="393.5" class="st26" width="48.2" height="2.1"/>
		<rect x="480.6" y="385.4" class="st26" width="48.2" height="2.1"/>
		<rect x="480.6" y="401.6" class="st26" width="48.2" height="2.1"/>
		<polygon class="st27" points="229.9,218.8 378.1,195.7 526.2,218.8 526.2,222.6 378.1,245.7 229.9,222.6 		"/>
		<polygon class="st28" points="229.9,222.6 378.1,199.5 526.2,222.6 378.1,245.7 		"/>
		<polygon class="st29" points="313.7,227 442.4,227 449,282.9 307.1,282.9 		"/>
		<path class="st29" d="M378.1,238.4c35.4,0,64.4-5,64.4-11.2s-28.9-11.2-64.4-11.2s-64.4,5-64.4,11.2S342.6,238.4,378.1,238.4z"/>
		<path class="st30" d="M378.1,294.1c39,0,70.9-5,70.9-11.2s-31.9-11.2-70.9-11.2s-70.9,5-70.9,11.2S339,294.1,378.1,294.1z"/>
		<path class="st31" d="M505.9,215.6v120.8c0,1.3,1,2.3,2.2,2.4l0,0c1.3,0,2.3-1.1,2.2-2.4c0,0,0,0,0,0V213.2c0-1.3-0.9-2.3-2.2-2.4
			h-32.9L505.9,215.6z"/>
		<path class="st31" d="M508,308.3c7.7,0,14.2,38.1-0.1,53.4C493.6,346.2,500.2,308.3,508,308.3z"/>
		<path class="st32" d="M506.6,305.6h3c1.2,0.1,2.1,1.1,2.1,2.2l0,0c0,1.2-0.9,2.2-2.1,2.2h-3c-1.2,0-2.1-1-2.1-2.2l0,0
			C504.5,306.7,505.4,305.7,506.6,305.6z"/>
		<path class="st33" d="M438.9,236.2c-34.9,14.9-77.2,23.6-122.8,23.6c-2.1,0-4.2,0-6.2-0.1l-2.6,22.6c1.4-6,32.6-10.8,70.9-10.8
			s69.5,4.8,70.9,10.8l-5.5-46.9l-0.1-1.2C441.8,235,440.4,235.6,438.9,236.2z"/>
		<rect x="269.6" y="299.5" class="st34" width="216.9" height="167.7"/>
		<rect x="269.6" y="297.5" class="st35" width="216.9" height="167.7"/>
		<path class="st36" d="M272.3,363.7v83.5c34.6-8.4,70.8-8.4,105.4,0V289c-34.6-8.4-70.8-8.4-105.4,0L272.3,363.7z"/>
		<path class="st37" d="M377.7,363.7v83.5c34.6-8.5,70.8-8.5,105.4,0V289c-34.6-8.4-70.8-8.4-105.4,0L377.7,363.7z"/>
		<path class="st38" d="M272.4,451.8c34.6-8.6,70.7-8.9,105.4-0.8v-2.5c-34.7-8.1-70.8-7.8-105.4,0.9L272.4,451.8z"/>
		<path class="st38" d="M272.4,455.7c34.6-8.6,70.7-8.9,105.4-0.8v-2.5c-34.7-8.1-70.8-7.8-105.4,0.8L272.4,455.7z"/>
		<path class="st38" d="M272.4,459.6c34.6-8.6,70.7-8.9,105.4-0.8v-2.4c-34.7-8.1-70.8-7.8-105.4,0.8L272.4,459.6z"/>
		<path class="st39" d="M483.1,451.8c-34.6-8.6-70.7-8.9-105.4-0.8v-2.5c34.7-8.1,70.8-7.8,105.4,0.9L483.1,451.8z"/>
		<path class="st39" d="M483.1,455.7c-34.6-8.6-70.7-8.9-105.4-0.8v-2.5c34.7-8.1,70.8-7.8,105.4,0.8L483.1,455.7z"/>
		<path class="st39" d="M483.1,459.6c-34.6-8.6-70.7-8.9-105.4-0.8v-2.5c34.7-8.1,70.8-7.8,105.4,0.8L483.1,459.6z"/>
		<path class="st40" d="M473.9,322.5c-28.5-7.1-58.4-7.3-87-0.6v-2c28.6-6.7,58.5-6.4,87,0.7V322.5z"/>
		<path class="st40" d="M473.9,338.5c-28.5-7.1-58.4-7.3-87-0.6v-2c28.6-6.7,58.5-6.4,87,0.7V338.5z"/>
		<path class="st40" d="M473.9,357.2c-28.5-7.1-58.4-7.3-87-0.6v-2c28.6-6.7,58.5-6.4,87,0.7V357.2z"/>
		<path class="st40" d="M473.9,375.2c-28.5-7.1-58.4-7.3-87-0.6v-2c28.6-6.7,58.5-6.4,87,0.7V375.2z"/>
		<path class="st40" d="M473.9,391.3c-28.5-7.1-58.4-7.3-87-0.6v-2c28.6-6.7,58.5-6.4,87,0.7V391.3z"/>
		<path class="st40" d="M473.9,410c-28.5-7.1-58.4-7.3-87-0.6v-2c28.6-6.7,58.5-6.4,87,0.7V410z"/>
		<path class="st41" d="M370.5,321.5c-28.5-7.1-58.4-7.3-87-0.6v-2c28.6-6.7,58.5-6.4,87,0.7V321.5z"/>
		<path class="st41" d="M370.5,337.5c-28.5-7.1-58.4-7.3-87-0.6v-2c28.6-6.7,58.5-6.4,87,0.7V337.5z"/>
		<path class="st41" d="M370.5,356.2c-28.5-7.1-58.4-7.3-87-0.6v-2c28.6-6.7,58.5-6.4,87,0.7V356.2z"/>
		<path class="st41" d="M370.5,374.3c-28.5-7.1-58.4-7.3-87-0.6v-2c28.6-6.7,58.5-6.4,87,0.7V374.3z"/>
		<path class="st41" d="M370.5,390.3c-28.5-7.1-58.4-7.3-87-0.6v-2c28.6-6.7,58.5-6.4,87,0.7V390.3z"/>
		<path class="st41" d="M370.5,409c-28.5-7.1-58.4-7.3-87-0.6v-2c28.6-6.7,58.5-6.4,87,0.7V409z"/>
	</g>
</g>
</svg>
